<svg xmlns="http://www.w3.org/2000/svg" version="1.1" xmlns:xlink="http://www.w3.org/1999/xlink" xmlns:svgjs="http://svgjs.dev/svgjs" width="2000" height="499" viewBox="0 0 2000 499"><g transform="matrix(1,0,0,1,2.257103501522465,2.871948409267958)"><svg viewBox="0 0 396 99" data-background-color="#ffffff" preserveAspectRatio="xMidYMid meet" height="499" width="2000" xmlns="http://www.w3.org/2000/svg" xmlns:xlink="http://www.w3.org/1999/xlink"><g id="tight-bounds" transform="matrix(1,0,0,1,0.23999999999995225,0.12139751039623548)"><svg viewBox="0 0 395.52 96.44371329524661" height="96.44371329524661" width="395.52"><g><svg viewBox="0 0 670.7418037450744 163.55387898343074" height="96.44371329524661" width="395.52"><g><rect width="10.672545292567941" height="118.93751691631539" x="236.61065821018207" y="22.308181033557673" fill="#b4c373" opacity="1" stroke-width="0" stroke="transparent" fill-opacity="1" class="rect-yte-0" data-fill-palette-color="primary" rx="1%" id="yte-0" data-palette-color="#b4c373"></rect></g><g transform="matrix(1,0,0,1,275.22180374507445,22.604045503498753)"><svg viewBox="0 0 395.52 118.34578797643323" height="118.34578797643323" width="395.52"><g id="textblocktransform"><svg viewBox="0 0 395.52 118.34578797643323" height="118.34578797643323" width="395.52" id="textblock"><g><svg viewBox="0 0 395.52 118.34578797643323" height="118.34578797643323" width="395.52"><g transform="matrix(1,0,0,1,0,0)"><svg width="395.52" viewBox="2.5 -34.806578371482004 119.24 35.606578371482" height="118.34578797643323" data-palette-color="#b4c373"><g class="wordmark-text-0" data-fill-palette-color="primary" id="text-0"><path d="M3.8 0.6L3.8 0.6Q3 0.6 2.75-0.15 2.5-0.9 2.5-1.95L2.5-1.95Q2.5-3.7 2.7-5.68 2.9-7.65 3.1-9.55L3.1-9.55 5.85-34.75 10-34.8Q12.05-34.85 12.83-34.52 13.6-34.2 13.85-33.2L13.85-33.2 21.25-6.15 18.65-6.25 30.2-31.4Q30.85-32.8 32.6-33.77 34.35-34.75 36.85-34.75L36.85-34.75Q37.85-34.75 38.38-34.27 38.9-33.8 38.75-32.45L38.75-32.45 35.35 0.4 31.35 0.4Q30.7 0.4 30.35-0.4 30-1.2 30-2.65L30-2.65Q30-4.7 30.13-7.1 30.25-9.5 30.5-11.7L30.5-11.7 32.35-27.5 32.65-27.3 26.1-13.2Q24.1-8.9 22.85-6.38 21.6-3.85 20.83-2.6 20.05-1.35 19.5-0.98 18.95-0.6 18.35-0.6L18.35-0.6Q17.7-0.6 17.28-0.88 16.85-1.15 16.6-2.05L16.6-2.05 9.15-27.55 9.6-27.6 8.2-14.65Q7.75-10.7 7.8-8.35 7.85-6 8.13-4.73 8.4-3.45 8.65-2.75 8.9-2.05 8.9-1.45L8.9-1.45Q8.9-0.9 8.3-0.53 7.7-0.15 6.8 0.1 5.9 0.35 5.08 0.48 4.25 0.6 3.8 0.6ZM50.15 0.75L50.15 0.75Q45.85 0.75 43.47-1.78 41.1-4.3 41.1-9.2L41.1-9.2Q41.1-12.45 42.17-15.23 43.25-18 45.1-20.1 46.95-22.2 49.37-23.38 51.8-24.55 54.5-24.55L54.5-24.55Q58.8-24.55 61.07-22 63.35-19.45 63.35-14.3L63.35-14.3Q63.35-11.2 62.32-8.47 61.3-5.75 59.5-3.68 57.7-1.6 55.3-0.43 52.9 0.75 50.15 0.75ZM51.35-3L51.35-3Q53.25-3 54.62-4.4 56-5.8 56.72-8.25 57.45-10.7 57.45-13.75L57.45-13.75Q57.45-17 56.47-18.9 55.5-20.8 53.25-20.8L53.25-20.8Q51.4-20.8 49.97-19.4 48.55-18 47.77-15.58 47-13.15 47-10.05L47-10.05Q47-6.6 48.1-4.8 49.2-3 51.35-3ZM73.6 0.8L73.6 0.8Q71.5 0.8 70.22-0.78 68.95-2.35 68.65-5.35L68.65-5.35 67.55-16.55Q67.45-17.7 67.22-18.88 67-20.05 66.65-20.75L66.65-20.75Q66.3-21.45 66.05-21.73 65.8-22 65.8-22.4L65.8-22.4Q65.8-22.8 66.37-23.18 66.95-23.55 67.8-23.88 68.65-24.2 69.5-24.38 70.35-24.55 70.9-24.55L70.9-24.55Q71.8-24.55 72.35-23.6 72.9-22.65 73.2-19.85L73.2-19.85 74.5-7.15Q74.65-5.7 75.02-4.95 75.4-4.2 76.1-4.2L76.1-4.2Q76.65-4.2 77.62-4.9 78.6-5.6 79.62-7.25 80.65-8.9 81.35-11.65 82.05-14.4 82.05-18.5L82.05-18.5Q82.05-19.7 81.72-20.35 81.4-21 81.4-21.5L81.4-21.5Q81.4-21.95 81.95-22.5 82.5-23.05 83.32-23.5 84.15-23.95 84.97-24.25 85.8-24.55 86.3-24.55L86.3-24.55Q86.9-24.55 87.5-24.2 88.1-23.85 88.1-22.45L88.1-22.45Q88.1-20.05 87.4-16.98 86.7-13.9 85.42-10.8 84.15-7.7 82.35-5.05 80.55-2.4 78.35-0.8 76.15 0.8 73.6 0.8ZM95.74 0.8L92.24 0.8Q91.39 0.8 91.14-0.18 90.89-1.15 90.89-2.2L90.89-2.2Q90.89-4 91.07-5.4 91.24-6.8 91.44-8.5L91.44-8.5 93.24-24.55 96.74-24.55Q97.74-24.55 98.04-23.45 98.34-22.35 98.34-20.95L98.34-20.95Q98.34-20.25 98.24-19.48 98.14-18.7 97.94-17.1L97.94-17.1 96.99-8.95Q96.69-6.35 96.44-4.6 96.19-2.85 96.04-1.6 95.89-0.35 95.74 0.8L95.74 0.8ZM96.64-27.4L96.64-27.4Q95.24-27.4 94.22-28.35 93.19-29.3 93.19-30.85L93.19-30.85Q93.19-32.7 94.39-33.73 95.59-34.75 97.14-34.75L97.14-34.75Q98.59-34.75 99.57-33.9 100.54-33.05 100.54-31.35L100.54-31.35Q100.54-29.65 99.39-28.53 98.24-27.4 96.64-27.4ZM109.49 0.8L109.49 0.8Q105.64 0.8 103.54-1.63 101.44-4.05 101.44-8.3L101.44-8.3Q101.44-11.85 102.44-14.8 103.44-17.75 105.24-19.95 107.04-22.15 109.47-23.35 111.89-24.55 114.74-24.55L114.74-24.55Q118.14-24.55 119.94-23.1 121.74-21.65 121.74-18.95L121.74-18.95Q121.74-16.2 119.92-14.15 118.09-12.1 114.67-10.65 111.24-9.2 106.49-8.2L106.49-8.2 105.84-11.2Q108.59-11.55 110.89-12.4 113.19-13.25 114.59-14.68 115.99-16.1 115.99-18.05L115.99-18.05Q115.99-19.4 115.47-20.1 114.94-20.8 113.59-20.8L113.59-20.8Q111.54-20.8 110.12-19.3 108.69-17.8 107.97-15.4 107.24-13 107.24-10.3L107.24-10.3Q107.24-6.65 108.37-5.43 109.49-4.2 111.69-4.2L111.69-4.2Q113.99-4.2 115.72-4.93 117.44-5.65 118.69-6.45L118.69-6.45Q119.09-6.7 119.39-6.85 119.69-7 119.89-7L119.89-7Q120.14-7 120.29-6.8 120.44-6.6 120.44-6.35L120.44-6.35Q120.44-5.45 119.64-4.25 118.84-3.05 117.37-1.9 115.89-0.75 113.89 0.03 111.89 0.8 109.49 0.8Z" fill="#b4c373" data-fill-palette-color="primary"></path></g></svg></g></svg></g></svg></g></svg></g><g><svg viewBox="0 0 208.67205796785763 163.55387898343074" height="163.55387898343074" width="208.67205796785763"><g><svg xmlns="http://www.w3.org/2000/svg" xmlns:xlink="http://www.w3.org/1999/xlink" version="1.1" x="0" y="0" viewBox="-0.000002980770661327782 -1.8676690059793364e-7 99.63200596015129 78.0900001867669" enable-background="new 0 0 99.633 78.09" xml:space="preserve" id="icon-0" width="208.67205796785763" height="163.55387898343074" class="icon-icon-0" data-fill-palette-color="accent"><g fill="#b2c679" data-fill-palette-color="accent"><path d="M96.941 0H2.693A2.693 2.693 0 0 0 0 2.693V59.241A2.69 2.69 0 0 0 2.693 61.935H45.778V72.706H37.699A2.691 2.691 0 1 0 37.699 78.09H59.241A2.692 2.692 0 0 0 59.241 72.706H51.163V61.935H96.94A2.69 2.69 0 0 0 99.632 59.241V2.693A2.69 2.69 0 0 0 96.941 0M94.248 56.548H5.386V5.385H94.247V56.548z" fill="#b2c679" data-fill-palette-color="accent"></path><path d="M43.264 41.276C43.327 41.453 43.419 41.606 43.514 41.764 43.577 41.865 43.598 41.981 43.674 42.075 43.703 42.112 43.748 42.123 43.779 42.157 43.969 42.369 44.192 42.533 44.439 42.678 44.523 42.728 44.592 42.801 44.679 42.841 45.015 42.991 45.384 43.085 45.778 43.085H45.78C46.107 43.085 46.43 43.012 46.743 42.891 46.859 42.846 46.956 42.775 47.064 42.715 47.195 42.641 47.337 42.594 47.46 42.496L58.231 33.877C58.323 33.803 58.371 33.7 58.45 33.617 58.51 33.553 58.595 33.527 58.652 33.456 58.704 33.39 58.717 33.31 58.762 33.242 58.865 33.088 58.941 32.931 59.009 32.762 59.072 32.603 59.127 32.448 59.158 32.282A3 3 0 0 0 59.158 31.268 2.6 2.6 0 0 0 59.009 30.788 2.6 2.6 0 0 0 58.762 30.309C58.717 30.24 58.703 30.16 58.652 30.094 58.586 30.014 58.494 29.975 58.423 29.904 58.353 29.832 58.314 29.738 58.232 29.674L47.46 21.054C47.365 20.98 47.252 20.957 47.152 20.897A2.6 2.6 0 0 0 46.658 20.641C46.481 20.579 46.305 20.558 46.121 20.534 46.003 20.518 45.9 20.464 45.777 20.464 45.724 20.464 45.682 20.49 45.63 20.495 45.448 20.504 45.278 20.554 45.101 20.601 44.933 20.645 44.768 20.679 44.615 20.754 44.472 20.82 44.354 20.922 44.225 21.014 44.067 21.128 43.914 21.236 43.786 21.382 43.752 21.419 43.704 21.436 43.673 21.475 43.597 21.57 43.576 21.684 43.513 21.786 43.418 21.944 43.326 22.096 43.263 22.273 43.2 22.454 43.177 22.634 43.153 22.821 43.137 22.935 43.085 23.038 43.085 23.157V40.392C43.085 40.511 43.138 40.615 43.153 40.729 43.177 40.915 43.201 41.095 43.264 41.276M48.47 28.761L52.239 31.775 48.47 34.789z" fill="#b2c679" data-fill-palette-color="accent"></path></g></svg></g></svg></g></svg></g><defs></defs></svg><rect width="395.52" height="96.44371329524661" fill="none" stroke="none" visibility="hidden"></rect></g></svg></g></svg>